<svg xmlns="http://www.w3.org/2000/svg" viewBox="0 0 1010 480" width="1010" height="480"><rect width="1010" height="480" fill="#FFFFFF"/><text x="190" y="40" text-anchor="middle" font-family="Georgia,serif" font-size="19" font-weight="bold" fill="#242923">Los 18 papers del marco v3: origen</text><path d="M190,240 L190.0,85.0 A155,155 0 0 1 342.6,266.9 Z" fill="#107C41" stroke="#fff" stroke-width="2"/><text x="264" y="178" text-anchor="middle" dominant-baseline="central" fill="#fff" font-family="Arial,sans-serif" font-size="17" font-weight="bold">5</text><path d="M190,240 L342.6,266.9 A155,155 0 0 1 137.0,385.7 Z" fill="#8A8F98" stroke="#fff" stroke-width="2"/><text x="238" y="323" text-anchor="middle" dominant-baseline="central" fill="#fff" font-family="Arial,sans-serif" font-size="17" font-weight="bold">5</text><path d="M190,240 L137.0,385.7 A155,155 0 0 1 37.4,266.9 Z" fill="#D9970E" stroke="#fff" stroke-width="2"/><text x="116" y="302" text-anchor="middle" dominant-baseline="central" fill="#fff" font-family="Arial,sans-serif" font-size="17" font-weight="bold">3</text><path d="M190,240 L37.4,266.9 A155,155 0 0 1 55.8,162.5 Z" fill="#4CAF7A" stroke="#fff" stroke-width="2"/><text x="95" y="223" text-anchor="middle" dominant-baseline="central" fill="#fff" font-family="Arial,sans-serif" font-size="17" font-weight="bold">2</text><path d="M190,240 L55.8,162.5 A155,155 0 0 1 137.0,94.3 Z" fill="#2B6CD4" stroke="#fff" stroke-width="2"/><text x="128" y="166" text-anchor="middle" dominant-baseline="central" fill="#fff" font-family="Arial,sans-serif" font-size="17" font-weight="bold">2</text><path d="M190,240 L137.0,94.3 A155,155 0 0 1 190.0,85.0 Z" fill="#8E6BB8" stroke="#fff" stroke-width="2"/><text x="173" y="145" text-anchor="middle" dominant-baseline="central" fill="#fff" font-family="Arial,sans-serif" font-size="17" font-weight="bold">1</text><rect x="420" y="50" width="20" height="13" rx="2" fill="#107C41"/><text x="448" y="62" font-family="Arial,Helvetica,sans-serif" font-size="14.5" font-weight="bold" fill="#242923">Búsqueda formal en bases (corpus)<tspan font-weight="normal" fill="#5C6068" font-size="12.5">  5 de 18 · 28%</tspan></text><text x="448" y="81" font-family="Arial,Helvetica,sans-serif" font-size="12.5" fill="#5C6068">Abbasi 2025 · Cabrero-Daniel 2024 · Kretzer 2025 · Robinson 2025 · Lindenberg 2025</text><text x="448" y="99" font-family="Menlo,Consolas,monospace" font-size="11" fill="#8A8F98">sprint 8/01_clasificacion_final_y_corpus.xlsx</text><rect x="420" y="121" width="20" height="13" rx="2" fill="#8A8F98"/><text x="448" y="133" font-family="Arial,Helvetica,sans-serif" font-size="14.5" font-weight="bold" fill="#242923">Literatura gris (sprint 10)<tspan font-weight="normal" fill="#5C6068" font-size="12.5">  5 de 18 · 28%</tspan></text><text x="448" y="152" font-family="Arial,Helvetica,sans-serif" font-size="12.5" fill="#5C6068">Geyer 2025 · Torun 2025 · Busany 2024 · Damian 2025 · Prensa profesional (cio.com)</text><text x="448" y="170" font-family="Menlo,Consolas,monospace" font-size="11" fill="#8A8F98">sprint 10/01_resultados_compilados.xlsx</text><rect x="420" y="192" width="20" height="13" rx="2" fill="#D9970E"/><text x="448" y="204" font-family="Arial,Helvetica,sans-serif" font-size="14.5" font-weight="bold" fill="#242923">Búsqueda complementaria (sprint 16)<tspan font-weight="normal" fill="#5C6068" font-size="12.5">  3 de 18 · 17%</tspan></text><text x="448" y="223" font-family="Arial,Helvetica,sans-serif" font-size="12.5" fill="#5C6068">Virk 2025 · Fawzy 2026 · Sharma 2026</text><text x="448" y="241" font-family="Menlo,Consolas,monospace" font-size="11" fill="#8A8F98">REFERENCIAS.xlsx (filas del sprint 16)</text><rect x="420" y="263" width="20" height="13" rx="2" fill="#4CAF7A"/><text x="448" y="275" font-family="Arial,Helvetica,sans-serif" font-size="14.5" font-weight="bold" fill="#242923">Forward snowballing<tspan font-weight="normal" fill="#5C6068" font-size="12.5">  2 de 18 · 11%</tspan></text><text x="448" y="294" font-family="Arial,Helvetica,sans-serif" font-size="12.5" fill="#5C6068">Mircea 2026 · Alabsi 2026</text><text x="448" y="312" font-family="Menlo,Consolas,monospace" font-size="11" fill="#8A8F98">sprint 9/02_forward_snowballing_clasificado.xlsx</text><rect x="420" y="334" width="20" height="13" rx="2" fill="#2B6CD4"/><text x="448" y="346" font-family="Arial,Helvetica,sans-serif" font-size="14.5" font-weight="bold" fill="#242923">Artículos del tutor (sprint 14)<tspan font-weight="normal" fill="#5C6068" font-size="12.5">  2 de 18 · 11%</tspan></text><text x="448" y="365" font-family="Arial,Helvetica,sans-serif" font-size="12.5" fill="#5C6068">Cornide-Reyes 2025 · Sauvola 2024</text><text x="448" y="383" font-family="Menlo,Consolas,monospace" font-size="11" fill="#8A8F98">sprint 15/FUENTES_MARCO.md (sin Excel: llegaron por mail)</text><rect x="420" y="405" width="20" height="13" rx="2" fill="#8E6BB8"/><text x="448" y="417" font-family="Arial,Helvetica,sans-serif" font-size="14.5" font-weight="bold" fill="#242923">Exploración temprana (sprints 2-3)<tspan font-weight="normal" fill="#5C6068" font-size="12.5">  1 de 18 · 6%</tspan></text><text x="448" y="436" font-family="Arial,Helvetica,sans-serif" font-size="12.5" fill="#5C6068">Pirozzi 2024</text><text x="448" y="454" font-family="Menlo,Consolas,monospace" font-size="11" fill="#8A8F98">sprint 15/FUENTES_MARCO.md (sin Excel: anterior a la búsqueda formal)</text></svg>